<?xml version="1.0" standalone="no"?>
<!DOCTYPE svg PUBLIC "-//W3C//DTD SVG 20010904//EN"
 "http://www.w3.org/TR/2001/REC-SVG-20010904/DTD/svg10.dtd">
<svg version="1.0" xmlns="http://www.w3.org/2000/svg"
 width="408.000000pt" height="499.000000pt" viewBox="0 0 408.000000 499.000000"
 preserveAspectRatio="xMidYMid meet">

<g transform="translate(0.000000,499.000000) scale(0.100000,-0.100000)"
fill="#000000" stroke="none">
<path d="M2408 4610 c-27 -15 -40 -30 -48 -58 l-12 -37 -70 0 c-63 0 -72 -2
-91 -26 -28 -34 -79 -46 -97 -24 -24 28 -70 47 -100 40 -45 -10 -83 -61 -77
-102 5 -28 0 -38 -34 -73 -22 -22 -45 -40 -52 -40 -28 0 -86 -52 -107 -95
l-22 -45 -58 0 c-32 0 -65 -2 -72 -5 -9 -4 -20 8 -31 30 -20 42 -65 65 -127
65 -83 0 -124 -45 -103 -114 9 -30 8 -34 -19 -49 -18 -10 -31 -28 -34 -47 -4
-16 -12 -30 -19 -30 -24 0 -73 -50 -80 -80 -6 -28 -9 -30 -56 -30 -65 0 -122
-30 -156 -82 -24 -36 -28 -52 -28 -114 0 -45 5 -78 13 -85 19 -20 15 -27 -23
-45 -19 -9 -45 -27 -58 -40 -17 -18 -33 -24 -70 -24 -58 0 -119 -29 -135 -65
-17 -36 -15 -120 3 -155 9 -16 29 -37 46 -45 28 -15 30 -20 27 -63 -3 -43 -5
-47 -33 -52 -16 -3 -31 -12 -33 -21 -1 -8 27 -193 62 -409 36 -217 121 -735
190 -1150 68 -415 132 -803 142 -862 9 -59 20 -112 24 -118 7 -12 48 -22 575
-139 176 -40 328 -76 337 -81 21 -12 45 -13 50 -2 2 4 113 32 248 61 546 119
941 208 946 214 4 3 26 167 50 364 23 197 66 547 94 778 27 231 60 497 71 590
11 94 37 310 58 480 37 300 37 311 20 330 -12 14 -16 29 -12 44 4 17 1 28 -11
37 -17 12 -17 14 0 39 16 25 16 29 2 58 -9 18 -19 49 -23 69 -4 27 -16 46 -40
65 -33 26 -33 27 -18 56 11 22 14 52 11 113 -3 79 -5 85 -38 119 -33 34 -35
39 -33 99 4 82 -19 116 -76 116 -41 0 -81 -23 -81 -47 0 -11 -6 -14 -22 -9
-13 3 -31 6 -41 6 -14 0 -16 4 -8 19 6 10 15 40 21 66 22 99 -26 208 -107 241
-44 19 -151 18 -187 -1 -24 -13 -35 -13 -62 -3 -28 10 -34 18 -40 52 -13 82
-52 126 -110 126 -31 0 -32 2 -38 53 -8 64 -35 110 -78 137 -41 25 -72 25
-120 0z m111 -28 c42 -21 59 -63 60 -149 1 -35 5 -63 11 -63 6 0 10 7 10 16 0
13 7 15 36 11 44 -7 63 -23 81 -64 18 -44 16 -73 -4 -89 -16 -12 -14 -13 17
-14 48 0 91 -29 105 -69 11 -33 9 -36 -30 -76 -38 -37 -45 -41 -85 -37 -30 3
-41 1 -36 -7 4 -6 20 -11 35 -11 32 0 46 -13 56 -53 4 -15 11 -27 16 -27 12 0
11 13 -1 45 -22 58 47 122 122 112 21 -3 38 -1 38 3 0 5 -19 10 -42 12 -38 3
-42 6 -55 42 -9 28 -10 43 -3 50 6 6 47 13 90 14 68 4 84 1 115 -18 42 -26 63
-63 71 -124 10 -68 -3 -113 -44 -158 -31 -35 -33 -40 -14 -34 18 6 24 2 32
-19 16 -42 13 -115 -5 -115 -8 0 -15 -4 -15 -10 0 -5 13 -7 29 -4 44 9 71 -10
71 -51 0 -18 5 -37 10 -40 6 -3 10 4 10 15 0 12 15 37 34 56 27 27 42 34 73
34 47 -1 68 -16 88 -63 26 -62 12 -161 -29 -206 -22 -24 -20 -34 4 -26 29 9
80 -44 80 -83 0 -35 -28 -47 -78 -33 -19 6 -34 6 -37 0 -4 -5 2 -9 11 -9 24 0
54 -29 54 -52 0 -11 5 -16 11 -12 6 3 8 17 5 30 -5 19 -2 24 13 24 53 0 63
-22 30 -64 -21 -26 -18 -46 6 -46 8 0 13 -12 12 -35 -1 -19 -1 -35 -1 -35 -51
4 -390 51 -394 55 -3 2 4 7 14 11 54 17 63 24 69 57 11 57 -31 117 -80 117 -9
0 -32 -7 -50 -16 -25 -12 -38 -13 -54 -5 -11 6 -27 11 -36 11 -9 0 -30 14 -46
31 -27 29 -32 31 -86 26 -32 -3 -70 -8 -85 -12 -23 -6 -33 -1 -66 34 -41 43
-67 50 -119 30 -62 -23 -90 -78 -64 -127 4 -9 6 -33 4 -52 l-5 -36 -131 17
c-73 10 -135 18 -138 18 -4 1 -9 17 -12 37 -3 20 -14 45 -23 55 -21 23 -11 37
12 18 9 -7 46 -14 85 -16 61 -2 70 0 84 19 8 13 15 40 15 60 0 31 -5 41 -25
50 -21 9 -25 18 -25 53 0 41 24 115 37 115 3 0 14 -7 24 -16 24 -22 59 -3 59
32 0 14 5 34 11 46 16 29 3 66 -30 82 -19 10 -30 26 -35 47 -8 41 -66 99 -100
99 -37 0 -99 -33 -130 -70 -41 -50 -34 -119 19 -165 31 -27 24 -80 -14 -100
-33 -17 -50 -35 -54 -61 -1 -10 -13 -33 -26 -50 -21 -29 -25 -31 -52 -21 -24
9 -33 8 -56 -9 -15 -12 -30 -32 -33 -45 -3 -13 -15 -26 -25 -27 -40 -8 -56
-33 -53 -81 l2 -46 -74 -12 c-41 -6 -88 -15 -104 -18 -28 -5 -29 -5 -12 14 16
18 16 22 1 67 -22 66 -31 74 -80 74 -35 0 -47 -5 -62 -26 -19 -25 -19 -25 -49
-8 -57 33 -104 -3 -104 -78 0 -21 9 -42 26 -59 l26 -27 -54 -11 c-29 -6 -134
-24 -233 -40 -99 -17 -227 -39 -285 -50 -58 -10 -109 -16 -113 -14 -10 6 -5
68 7 94 5 12 -3 20 -34 32 -50 19 -75 69 -67 132 8 59 45 85 122 85 105 0 151
-43 147 -136 -2 -36 1 -53 8 -49 5 3 10 22 10 40 0 24 6 38 20 45 28 15 60 3
60 -22 0 -18 3 -18 34 10 19 16 40 32 48 34 7 3 10 8 6 12 -3 4 -20 0 -37 -8
-22 -12 -36 -13 -56 -6 -15 6 -37 7 -50 4 -19 -5 -27 0 -39 25 -9 16 -29 38
-46 48 -16 9 -30 21 -30 25 0 12 71 55 114 68 l38 12 -28 23 c-27 22 -29 28
-29 97 0 61 4 78 24 107 28 40 91 70 144 71 68 0 123 -44 96 -77 -19 -22 -3
-26 25 -8 19 13 38 16 66 12 34 -4 40 -2 38 11 -5 30 48 27 77 -4 14 -15 25
-22 25 -15 0 24 49 61 80 61 18 0 29 4 25 10 -3 6 -15 10 -26 10 -13 0 -25 12
-35 35 -29 71 -10 144 51 191 31 24 47 28 99 29 33 0 69 -4 79 -9 14 -7 17 -3
17 20 0 39 32 90 72 114 42 25 126 35 173 20 40 -13 82 -67 65 -84 -19 -19
-10 -24 25 -13 52 16 85 -2 85 -46 0 -21 -8 -41 -19 -51 -11 -10 -25 -31 -32
-47 -10 -25 -16 -29 -36 -25 -28 8 -31 -10 -3 -19 26 -8 37 -1 60 44 22 44 43
56 71 41 13 -8 19 -7 19 1 0 6 -9 13 -20 16 -41 11 -17 123 27 123 7 0 13 5
13 10 0 18 -30 11 -54 -13 -18 -18 -31 -22 -65 -19 -34 3 -44 10 -56 33 -8 15
-15 30 -15 33 0 2 25 10 55 17 43 10 55 16 55 31 0 31 18 55 45 62 21 5 24 10
15 26 -14 25 -13 73 2 88 14 14 97 16 132 2 22 -8 26 -7 26 9 0 37 23 82 49
96 35 19 59 18 100 -3z m-459 -127 c19 -20 21 -27 10 -40 -21 -25 -3 -29 26
-6 30 23 64 27 82 9 18 -18 14 -34 -12 -46 -17 -7 -27 -22 -31 -44 -5 -28 -11
-34 -35 -36 -16 -1 -40 -6 -53 -11 -14 -6 -30 -5 -40 1 -10 5 -40 10 -67 11
-28 1 -50 5 -50 8 0 13 27 29 58 35 l32 6 -20 26 c-58 73 36 155 100 87z
m-574 -260 c12 -8 27 -28 34 -44 11 -28 10 -33 -19 -61 -48 -48 -61 -114 -37
-183 13 -36 13 -39 -11 -63 -23 -23 -27 -24 -42 -10 -22 20 -75 21 -91 2 -6
-8 -26 -16 -43 -18 -26 -2 -38 4 -64 33 -41 46 -42 70 -1 104 28 24 38 26 78
21 41 -5 43 -4 26 9 -11 8 -23 15 -28 15 -14 0 -9 33 9 52 9 10 27 18 40 18
26 0 31 21 8 40 -20 17 -19 59 2 82 20 23 109 25 139 3z m836 -236 c24 -13 57
-83 58 -123 0 -24 2 -27 15 -16 12 10 18 10 30 0 20 -16 19 -50 0 -50 -13 0
-14 -4 -5 -20 7 -14 8 -26 0 -39 -10 -19 -12 -19 -39 -3 -33 19 -57 7 -63 -31
-2 -13 -9 -21 -18 -18 -8 2 -32 6 -53 8 -34 5 -38 9 -35 32 2 18 10 27 26 29
27 4 19 22 -9 22 -11 0 -34 13 -50 29 -54 54 -34 137 43 174 39 19 71 21 100
6z m993 -29 c21 -24 16 -98 -9 -116 -22 -16 -20 -27 4 -21 11 3 20 2 20 -3 0
-4 -18 -10 -41 -13 -23 -3 -52 -16 -66 -29 -22 -20 -25 -21 -34 -7 -5 9 -20
20 -34 23 -21 5 -25 12 -25 44 0 20 -3 48 -7 61 -5 22 -4 23 23 19 16 -3 35
-7 43 -9 8 -2 20 7 27 21 27 51 68 64 99 30z m-1027 -292 c14 -14 16 -94 2
-103 -20 -12 -9 -23 23 -21 29 1 32 -2 35 -32 2 -18 -2 -40 -9 -48 -14 -17
-61 -18 -77 -2 -9 9 -15 9 -24 0 -17 -17 -24 -15 -51 14 l-24 25 -17 -26 c-24
-37 -70 -32 -74 9 -5 45 16 83 56 100 29 12 32 15 15 15 -31 1 -29 26 3 56 21
20 38 25 78 25 29 0 57 -5 64 -12z m-250 -140 c7 -7 12 -24 12 -38 0 -38 32
-64 69 -57 35 7 50 -7 58 -59 l6 -37 -39 8 c-21 4 -88 9 -149 10 l-110 3 0 43
0 44 38 0 c26 0 36 4 32 13 -6 15 12 64 28 74 18 11 41 10 55 -4z m608 -43
c14 -15 23 -32 20 -40 -4 -12 4 -15 33 -15 52 0 65 -17 54 -72 -9 -42 -9 -43
-48 -42 -22 1 -51 5 -66 9 -22 6 -28 2 -44 -29 -21 -38 -53 -48 -74 -23 -17
22 -25 75 -12 91 9 10 8 16 -4 26 -21 17 -19 73 3 92 41 36 103 38 138 3z
m-1015 -35 c10 -6 19 -20 19 -30 0 -11 5 -29 12 -39 18 -29 -5 -51 -54 -51
-26 0 -38 -4 -36 -12 1 -7 -1 -25 -5 -40 -6 -21 -15 -29 -42 -34 -39 -7 -85
15 -85 41 0 8 -9 19 -20 25 -14 8 -20 21 -20 46 0 72 29 90 90 57 l32 -18 25
33 c26 33 50 39 84 22z m1233 -1 c33 -16 37 -40 9 -62 -35 -28 -32 -85 8 -120
40 -35 30 -50 -20 -30 -35 14 -44 14 -84 0 -53 -18 -90 -6 -95 31 -3 19 1 22
31 22 19 0 40 6 46 14 13 16 18 104 7 128 -5 11 -2 18 11 21 33 9 62 7 87 -4z
m265 -75 c24 -31 27 -62 8 -89 -12 -15 -22 -17 -58 -12 -40 6 -42 6 -25 -8 18
-13 18 -16 3 -39 -35 -53 -105 -40 -134 25 -10 23 -24 39 -34 39 -9 0 -19 10
-23 23 -9 32 -8 35 14 57 21 21 84 28 95 10 9 -15 47 -12 69 5 30 22 62 18 85
-11z m-1159 -261 c1 -126 7 -786 14 -1468 8 -682 13 -1241 11 -1243 -1 -2 -23
2 -49 9 -34 8 -47 17 -51 33 -2 11 -7 118 -10 236 -3 118 -8 235 -10 260 -2
25 -6 126 -10 225 -3 99 -8 221 -10 270 -3 50 -9 207 -15 350 -6 143 -15 361
-20 485 -5 124 -12 293 -15 375 -3 83 -8 184 -10 225 -2 41 -7 157 -11 257
l-6 182 23 5 c45 11 124 24 147 25 l22 1 0 -227z m50 -110 c0 -186 4 -691 10
-1123 16 -1283 17 -1470 3 -1470 -10 0 -13 39 -13 163 0 224 -18 2006 -25
2425 -4 299 -3 342 10 342 13 0 15 -44 15 -337z m223 311 l67 -6 0 -518 0
-519 -47 -38 c-25 -21 -64 -65 -85 -97 l-38 -59 0 627 c0 593 1 627 18 622 9
-2 47 -8 85 -12z m412 -15 c4 -6 5 -12 2 -15 -7 -7 -37 7 -37 17 0 13 27 11
35 -2z m-1041 -91 c4 -40 11 -181 16 -313 6 -132 15 -332 20 -445 5 -113 14
-308 20 -435 27 -597 34 -748 60 -1319 6 -125 9 -230 6 -233 -2 -3 -33 2 -68
9 -60 14 -63 16 -70 49 -4 19 -35 396 -68 839 -33 443 -65 861 -70 930 -24
291 -70 905 -70 931 0 34 18 37 75 13 46 -19 90 -11 111 22 9 13 20 24 24 24
5 0 11 -33 14 -72z m1056 35 l30 -28 -16 -395 c-8 -217 -17 -409 -20 -426 l-4
-31 -78 -6 c-42 -2 -78 -4 -79 -3 -2 1 4 187 12 412 8 225 15 424 15 442 0 27
4 32 24 32 13 0 29 7 36 15 19 22 46 18 80 -12z m-1427 -248 c10 -115 35 -421
57 -680 72 -854 150 -1785 150 -1789 0 -4 -122 22 -127 28 -4 4 -323 2572
-323 2601 0 21 7 24 73 35 39 7 88 15 107 19 19 5 38 5 41 2 3 -3 13 -100 22
-216z m1701 200 c11 -8 35 -15 53 -15 23 0 33 -5 33 -15 0 -45 -51 -850 -54
-853 -2 -2 -36 7 -76 19 l-71 21 6 77 c6 72 45 742 45 769 0 17 41 15 64 -3z
m429 -22 c15 -4 17 -12 12 -46 -3 -23 -28 -287 -55 -586 -27 -299 -51 -545
-54 -548 -2 -2 -11 17 -20 44 -9 27 -38 75 -65 108 l-48 60 43 490 c23 270 42
492 43 493 1 5 119 -8 144 -15z m-2529 -45 c6 -28 -1 25 146 -1113 66 -511
134 -1032 150 -1157 38 -291 39 -272 -7 -263 -21 4 -39 8 -40 9 -2 1 -28 155
-58 342 -31 186 -121 733 -201 1214 -79 481 -146 895 -147 919 l-2 45 65 12
c36 6 71 12 77 13 7 0 15 -9 17 -21z m1991 -827 c273 -56 439 -254 381 -454
-32 -108 -159 -214 -302 -251 -79 -20 -248 -21 -333 -1 -86 21 -193 78 -261
142 -88 81 -123 179 -100 286 15 77 63 143 138 194 140 95 294 122 477 84z
m-586 -594 l51 -48 0 -599 0 -600 -22 -5 c-74 -17 -114 -25 -125 -25 -10 0
-13 149 -13 713 l0 712 29 -50 c16 -27 52 -72 80 -98z m961 -484 c-28 -307
-53 -563 -54 -569 -4 -10 -135 -39 -143 -31 -2 3 15 227 38 498 l41 494 59 53
c32 29 68 71 81 93 12 22 24 36 26 31 2 -6 -20 -262 -48 -569z m-632 318 c23
-4 45 -10 47 -13 3 -2 -4 -213 -15 -469 -11 -255 -20 -480 -20 -500 l0 -36
-72 -16 c-40 -9 -74 -14 -76 -12 -3 2 3 215 12 472 9 257 16 497 16 532 l0 64
33 -7 c17 -3 51 -10 75 -15z m352 -23 c0 -51 -51 -912 -55 -924 -4 -13 -132
-40 -142 -30 -3 3 6 212 21 463 14 252 26 467 26 479 0 18 9 23 63 31 34 6 68
11 75 12 7 0 12 -11 12 -31z"/>
<path d="M2960 4066 c0 -9 5 -16 10 -16 6 0 10 4 10 9 0 6 -4 13 -10 16 -5 3
-10 -1 -10 -9z"/>
<path d="M1990 4040 c0 -5 7 -10 16 -10 8 0 12 5 9 10 -3 6 -10 10 -16 10 -5
0 -9 -4 -9 -10z"/>
<path d="M1752 3873 c-44 -21 -68 -67 -53 -100 15 -33 15 -33 -17 -33 -35 0
-52 -16 -52 -51 0 -28 25 -57 38 -44 4 4 1 10 -5 12 -7 3 -13 17 -13 33 0 34
24 45 65 30 37 -14 41 -7 16 28 -28 40 -27 58 8 93 25 25 37 29 85 29 63 0 86
-20 86 -76 0 -26 -5 -33 -25 -38 -14 -4 -25 -11 -25 -16 0 -12 2 -12 36 0 22
9 31 7 49 -10 14 -13 25 -17 29 -12 3 6 -5 19 -19 30 -17 13 -25 30 -25 50 0
18 -11 43 -26 61 -22 27 -32 31 -72 31 -26 0 -62 -8 -80 -17z"/>
<path d="M3000 3870 c0 -5 4 -10 9 -10 6 0 13 5 16 10 3 6 -1 10 -9 10 -9 0
-16 -4 -16 -10z"/>
<path d="M2780 3850 c-13 -13 -20 -33 -20 -60 0 -35 -3 -40 -23 -40 -49 0 -78
-40 -61 -84 11 -29 23 -16 17 19 -6 36 -5 37 62 47 16 3 19 10 17 37 -4 51 21
81 67 81 25 0 44 -7 55 -19 21 -23 34 -101 17 -101 -19 0 -12 -15 12 -25 12
-6 29 -25 39 -43 9 -18 18 -30 21 -25 5 8 -12 52 -32 83 -6 8 -13 33 -16 54
-13 81 -105 126 -155 76z"/>
<path d="M1343 3688 c-28 -14 -45 -57 -42 -105 l4 -38 -57 3 c-33 2 -59 -1
-63 -7 -4 -7 9 -11 39 -11 35 0 49 -5 58 -20 7 -11 17 -20 21 -20 5 0 5 9 2
20 -5 17 -2 20 24 20 16 0 33 5 36 10 4 6 -5 10 -19 10 -24 0 -26 4 -26 43 0
45 22 87 45 87 8 0 17 5 20 10 8 13 -14 12 -42 -2z"/>
<path d="M1970 3676 c0 -8 5 -18 10 -21 6 -3 10 3 10 14 0 12 -4 21 -10 21 -5
0 -10 -6 -10 -14z"/>
<path d="M3305 3430 c-3 -5 -2 -10 4 -10 5 0 13 5 16 10 3 6 2 10 -4 10 -5 0
-13 -4 -16 -10z"/>
<path d="M1155 3400 c3 -5 15 -10 26 -10 11 0 17 5 14 10 -3 6 -15 10 -26 10
-11 0 -17 -4 -14 -10z"/>
<path d="M2270 3750 c0 -5 4 -10 9 -10 6 0 13 5 16 10 3 6 -1 10 -9 10 -9 0
-16 -4 -16 -10z"/>
</g>
</svg>
